<mxfile>
    <diagram id="Ukvk4j1G9wkoIwp5nvgm" name="Page-1">
        <mxGraphModel dx="1134" dy="770" grid="1" gridSize="10" guides="1" tooltips="1" connect="1" arrows="1" fold="1" page="1" pageScale="1" pageWidth="850" pageHeight="1100" background="none" math="0" shadow="0">
            <root>
                <mxCell id="0"/>
                <mxCell id="1" parent="0"/>
                <mxCell id="21" value="" style="endArrow=classic;html=1;startArrow=none;align=right;horizontal=1;verticalAlign=bottom;" edge="1" parent="1">
                    <mxGeometry relative="1" as="geometry">
                        <mxPoint x="120" y="131" as="sourcePoint"/>
                        <mxPoint x="190" y="131" as="targetPoint"/>
                    </mxGeometry>
                </mxCell>
                <mxCell id="33" value="" style="endArrow=none;html=1;align=right;horizontal=1;verticalAlign=bottom;" edge="1" parent="1">
                    <mxGeometry relative="1" as="geometry">
                        <mxPoint x="30" y="131" as="sourcePoint"/>
                        <mxPoint x="110" y="131" as="targetPoint"/>
                    </mxGeometry>
                </mxCell>
                <mxCell id="34" value="上周五" style="edgeLabel;resizable=0;html=1;align=right;verticalAlign=bottom;fontSize=14;fontStyle=1;horizontal=1;" connectable="0" vertex="1" parent="33">
                    <mxGeometry x="-1" relative="1" as="geometry">
                        <mxPoint x="100" y="-21" as="offset"/>
                    </mxGeometry>
                </mxCell>
                <mxCell id="42" value="" style="aspect=fixed;perimeter=ellipsePerimeter;html=1;align=right;fontSize=12;verticalAlign=bottom;fontColor=#364149;shadow=0;dashed=0;image;image=img/lib/cumulus/netq_agent.svg;horizontal=1;" vertex="1" parent="1">
                    <mxGeometry x="100" y="122" width="18" height="18" as="geometry"/>
                </mxCell>
                <mxCell id="51" value="" style="endArrow=none;html=1;startArrow=none;align=right;horizontal=1;verticalAlign=bottom;" edge="1" parent="1">
                    <mxGeometry relative="1" as="geometry">
                        <mxPoint x="110" y="131" as="sourcePoint"/>
                        <mxPoint x="120" y="131" as="targetPoint"/>
                    </mxGeometry>
                </mxCell>
                <mxCell id="103" value="" style="endArrow=classic;html=1;startArrow=none;align=right;horizontal=1;verticalAlign=bottom;" edge="1" parent="1">
                    <mxGeometry relative="1" as="geometry">
                        <mxPoint x="284" y="131" as="sourcePoint"/>
                        <mxPoint x="354" y="131" as="targetPoint"/>
                    </mxGeometry>
                </mxCell>
                <mxCell id="104" value="2021-5-31" style="edgeLabel;resizable=0;html=1;align=right;verticalAlign=bottom;fontSize=15;horizontal=1;" connectable="0" vertex="1" parent="103">
                    <mxGeometry x="1" relative="1" as="geometry">
                        <mxPoint x="-44" y="39" as="offset"/>
                    </mxGeometry>
                </mxCell>
                <mxCell id="105" value="" style="endArrow=none;html=1;align=right;horizontal=1;verticalAlign=bottom;" edge="1" parent="1">
                    <mxGeometry relative="1" as="geometry">
                        <mxPoint x="191" y="131" as="sourcePoint"/>
                        <mxPoint x="271" y="131" as="targetPoint"/>
                    </mxGeometry>
                </mxCell>
                <mxCell id="106" value="周一" style="edgeLabel;resizable=0;html=1;align=right;verticalAlign=bottom;fontSize=14;fontStyle=1;horizontal=1;" connectable="0" vertex="1" parent="105">
                    <mxGeometry x="-1" relative="1" as="geometry">
                        <mxPoint x="99" y="-21" as="offset"/>
                    </mxGeometry>
                </mxCell>
                <mxCell id="107" value="" style="aspect=fixed;perimeter=ellipsePerimeter;html=1;align=right;fontSize=12;verticalAlign=bottom;fontColor=#364149;shadow=0;dashed=0;image;image=img/lib/cumulus/netq_agent.svg;horizontal=1;" vertex="1" parent="1">
                    <mxGeometry x="264" y="122" width="18" height="18" as="geometry"/>
                </mxCell>
                <mxCell id="108" value="" style="endArrow=none;html=1;startArrow=none;align=right;horizontal=1;verticalAlign=bottom;" edge="1" parent="1">
                    <mxGeometry relative="1" as="geometry">
                        <mxPoint x="274" y="131" as="sourcePoint"/>
                        <mxPoint x="284" y="131" as="targetPoint"/>
                    </mxGeometry>
                </mxCell>
                <mxCell id="109" value="" style="endArrow=classic;html=1;startArrow=none;align=right;horizontal=1;verticalAlign=bottom;" edge="1" parent="1">
                    <mxGeometry relative="1" as="geometry">
                        <mxPoint x="440" y="131" as="sourcePoint"/>
                        <mxPoint x="510" y="131" as="targetPoint"/>
                    </mxGeometry>
                </mxCell>
                <mxCell id="110" value="2021-6-1" style="edgeLabel;resizable=0;html=1;align=right;verticalAlign=bottom;fontSize=15;horizontal=1;" connectable="0" vertex="1" parent="109">
                    <mxGeometry x="1" relative="1" as="geometry">
                        <mxPoint x="-46" y="39" as="offset"/>
                    </mxGeometry>
                </mxCell>
                <mxCell id="111" value="" style="endArrow=none;html=1;align=right;horizontal=1;verticalAlign=bottom;" edge="1" parent="1">
                    <mxGeometry relative="1" as="geometry">
                        <mxPoint x="350" y="131" as="sourcePoint"/>
                        <mxPoint x="430" y="131" as="targetPoint"/>
                    </mxGeometry>
                </mxCell>
                <mxCell id="112" value="周二" style="edgeLabel;resizable=0;html=1;align=right;verticalAlign=bottom;fontSize=14;fontStyle=1;horizontal=1;" connectable="0" vertex="1" parent="111">
                    <mxGeometry x="-1" relative="1" as="geometry">
                        <mxPoint x="100" y="-21" as="offset"/>
                    </mxGeometry>
                </mxCell>
                <mxCell id="113" value="" style="aspect=fixed;perimeter=ellipsePerimeter;html=1;align=right;fontSize=12;verticalAlign=bottom;fontColor=#364149;shadow=0;dashed=0;image;image=img/lib/cumulus/netq_agent.svg;horizontal=1;" vertex="1" parent="1">
                    <mxGeometry x="420" y="122" width="18" height="18" as="geometry"/>
                </mxCell>
                <mxCell id="114" value="" style="endArrow=none;html=1;startArrow=none;align=right;horizontal=1;verticalAlign=bottom;" edge="1" parent="1">
                    <mxGeometry relative="1" as="geometry">
                        <mxPoint x="430" y="131" as="sourcePoint"/>
                        <mxPoint x="440" y="131" as="targetPoint"/>
                    </mxGeometry>
                </mxCell>
                <mxCell id="115" value="" style="endArrow=classic;html=1;startArrow=none;align=right;horizontal=1;verticalAlign=bottom;" edge="1" parent="1">
                    <mxGeometry relative="1" as="geometry">
                        <mxPoint x="600" y="131" as="sourcePoint"/>
                        <mxPoint x="670" y="131" as="targetPoint"/>
                    </mxGeometry>
                </mxCell>
                <mxCell id="116" value="2021-6-2" style="edgeLabel;resizable=0;html=1;align=right;verticalAlign=bottom;fontSize=15;horizontal=1;" connectable="0" vertex="1" parent="115">
                    <mxGeometry x="1" relative="1" as="geometry">
                        <mxPoint x="-46" y="39" as="offset"/>
                    </mxGeometry>
                </mxCell>
                <mxCell id="117" value="" style="endArrow=none;html=1;align=right;horizontal=1;verticalAlign=bottom;" edge="1" parent="1">
                    <mxGeometry relative="1" as="geometry">
                        <mxPoint x="510" y="131" as="sourcePoint"/>
                        <mxPoint x="590" y="131" as="targetPoint"/>
                    </mxGeometry>
                </mxCell>
                <mxCell id="118" value="周三" style="edgeLabel;resizable=0;html=1;align=right;verticalAlign=bottom;fontSize=14;fontStyle=1;horizontal=1;" connectable="0" vertex="1" parent="117">
                    <mxGeometry x="-1" relative="1" as="geometry">
                        <mxPoint x="100" y="-21" as="offset"/>
                    </mxGeometry>
                </mxCell>
                <mxCell id="119" value="" style="aspect=fixed;perimeter=ellipsePerimeter;html=1;align=right;fontSize=12;verticalAlign=bottom;fontColor=#364149;shadow=0;dashed=0;image;image=img/lib/cumulus/netq_agent.svg;horizontal=1;" vertex="1" parent="1">
                    <mxGeometry x="580" y="122" width="18" height="18" as="geometry"/>
                </mxCell>
                <mxCell id="120" value="" style="endArrow=none;html=1;startArrow=none;align=right;horizontal=1;verticalAlign=bottom;" edge="1" parent="1">
                    <mxGeometry relative="1" as="geometry">
                        <mxPoint x="590" y="131" as="sourcePoint"/>
                        <mxPoint x="600" y="131" as="targetPoint"/>
                    </mxGeometry>
                </mxCell>
                <mxCell id="121" value="" style="endArrow=classic;html=1;startArrow=none;align=right;horizontal=1;verticalAlign=bottom;" edge="1" parent="1">
                    <mxGeometry relative="1" as="geometry">
                        <mxPoint x="750" y="131" as="sourcePoint"/>
                        <mxPoint x="820" y="131" as="targetPoint"/>
                    </mxGeometry>
                </mxCell>
                <mxCell id="122" value="2021-5-28" style="edgeLabel;resizable=0;html=1;align=right;verticalAlign=bottom;fontSize=15;horizontal=1;" connectable="0" vertex="1" parent="121">
                    <mxGeometry x="1" relative="1" as="geometry">
                        <mxPoint x="-46" y="39" as="offset"/>
                    </mxGeometry>
                </mxCell>
                <mxCell id="123" value="" style="endArrow=none;html=1;align=right;horizontal=1;verticalAlign=bottom;" edge="1" parent="1">
                    <mxGeometry relative="1" as="geometry">
                        <mxPoint x="660" y="131" as="sourcePoint"/>
                        <mxPoint x="740" y="131" as="targetPoint"/>
                    </mxGeometry>
                </mxCell>
                <mxCell id="124" value="上周五" style="edgeLabel;resizable=0;html=1;align=right;verticalAlign=bottom;fontSize=14;fontStyle=1;horizontal=1;" connectable="0" vertex="1" parent="123">
                    <mxGeometry x="-1" relative="1" as="geometry">
                        <mxPoint x="100" y="-21" as="offset"/>
                    </mxGeometry>
                </mxCell>
                <mxCell id="125" value="" style="aspect=fixed;perimeter=ellipsePerimeter;html=1;align=right;fontSize=12;verticalAlign=bottom;fontColor=#364149;shadow=0;dashed=0;image;image=img/lib/cumulus/netq_agent.svg;horizontal=1;" vertex="1" parent="1">
                    <mxGeometry x="730" y="122" width="18" height="18" as="geometry"/>
                </mxCell>
                <mxCell id="126" value="" style="endArrow=none;html=1;startArrow=none;align=right;horizontal=1;verticalAlign=bottom;" edge="1" parent="1">
                    <mxGeometry relative="1" as="geometry">
                        <mxPoint x="740" y="131" as="sourcePoint"/>
                        <mxPoint x="750" y="131" as="targetPoint"/>
                    </mxGeometry>
                </mxCell>
                <mxCell id="127" value="2021-5-28" style="edgeLabel;resizable=0;html=1;align=right;verticalAlign=bottom;fontSize=15;horizontal=1;" connectable="0" vertex="1" parent="1">
                    <mxGeometry x="140" y="170" as="geometry"/>
                </mxCell>
            </root>
        </mxGraphModel>
    </diagram>
</mxfile>